<svg id="visual" viewBox="0 0 1920 1080" width="1920" height="1080" xmlns="http://www.w3.org/2000/svg" xmlns:xlink="http://www.w3.org/1999/xlink" version="1.1"><rect x="0" y="0" width="1920" height="1080" fill="#001220"></rect><path d="M0 903L21.3 902C42.7 901 85.3 899 128 899C170.7 899 213.3 901 256 900.8C298.7 900.7 341.3 898.3 384 893.3C426.7 888.3 469.3 880.7 512 880.2C554.7 879.7 597.3 886.3 640 886.7C682.7 887 725.3 881 768 884.7C810.7 888.3 853.3 901.7 896 907.8C938.7 914 981.3 913 1024 911.8C1066.7 910.7 1109.3 909.3 1152 907.8C1194.7 906.3 1237.3 904.7 1280 903.8C1322.7 903 1365.3 903 1408 899.7C1450.7 896.3 1493.3 889.7 1536 890.5C1578.7 891.3 1621.3 899.7 1664 898C1706.7 896.3 1749.3 884.7 1792 884C1834.7 883.3 1877.3 893.7 1898.7 898.8L1920 904L1920 1081L1898.7 1081C1877.3 1081 1834.7 1081 1792 1081C1749.3 1081 1706.7 1081 1664 1081C1621.3 1081 1578.7 1081 1536 1081C1493.3 1081 1450.7 1081 1408 1081C1365.3 1081 1322.7 1081 1280 1081C1237.3 1081 1194.7 1081 1152 1081C1109.3 1081 1066.7 1081 1024 1081C981.3 1081 938.7 1081 896 1081C853.3 1081 810.7 1081 768 1081C725.3 1081 682.7 1081 640 1081C597.3 1081 554.7 1081 512 1081C469.3 1081 426.7 1081 384 1081C341.3 1081 298.7 1081 256 1081C213.3 1081 170.7 1081 128 1081C85.3 1081 42.7 1081 21.3 1081L0 1081Z" fill="#ffec00"></path><path d="M0 901L21.3 904.3C42.7 907.7 85.3 914.3 128 919.7C170.7 925 213.3 929 256 928C298.7 927 341.3 921 384 920C426.7 919 469.3 923 512 924.5C554.7 926 597.3 925 640 922.2C682.7 919.3 725.3 914.7 768 915C810.7 915.3 853.3 920.7 896 924.3C938.7 928 981.3 930 1024 928C1066.7 926 1109.3 920 1152 920.2C1194.7 920.3 1237.3 926.7 1280 926.5C1322.7 926.3 1365.3 919.7 1408 915C1450.7 910.3 1493.3 907.7 1536 906.7C1578.7 905.7 1621.3 906.3 1664 910.2C1706.7 914 1749.3 921 1792 920.7C1834.7 920.3 1877.3 912.7 1898.7 908.8L1920 905L1920 1081L1898.7 1081C1877.3 1081 1834.7 1081 1792 1081C1749.3 1081 1706.7 1081 1664 1081C1621.3 1081 1578.7 1081 1536 1081C1493.3 1081 1450.7 1081 1408 1081C1365.3 1081 1322.7 1081 1280 1081C1237.3 1081 1194.7 1081 1152 1081C1109.3 1081 1066.7 1081 1024 1081C981.3 1081 938.7 1081 896 1081C853.3 1081 810.7 1081 768 1081C725.3 1081 682.7 1081 640 1081C597.3 1081 554.7 1081 512 1081C469.3 1081 426.7 1081 384 1081C341.3 1081 298.7 1081 256 1081C213.3 1081 170.7 1081 128 1081C85.3 1081 42.7 1081 21.3 1081L0 1081Z" fill="#ffd300"></path><path d="M0 945L21.3 943.8C42.7 942.7 85.3 940.3 128 943C170.7 945.7 213.3 953.3 256 954.3C298.7 955.3 341.3 949.7 384 945C426.7 940.3 469.3 936.7 512 939.2C554.7 941.7 597.3 950.3 640 949.3C682.7 948.3 725.3 937.7 768 935.5C810.7 933.3 853.3 939.7 896 940C938.7 940.3 981.3 934.7 1024 933.2C1066.7 931.7 1109.3 934.3 1152 939.5C1194.7 944.7 1237.3 952.3 1280 953.2C1322.7 954 1365.3 948 1408 944.7C1450.7 941.3 1493.3 940.7 1536 941C1578.7 941.3 1621.3 942.7 1664 946.3C1706.7 950 1749.3 956 1792 953C1834.7 950 1877.3 938 1898.7 932L1920 926L1920 1081L1898.7 1081C1877.3 1081 1834.7 1081 1792 1081C1749.3 1081 1706.7 1081 1664 1081C1621.3 1081 1578.7 1081 1536 1081C1493.3 1081 1450.7 1081 1408 1081C1365.3 1081 1322.7 1081 1280 1081C1237.3 1081 1194.7 1081 1152 1081C1109.3 1081 1066.7 1081 1024 1081C981.3 1081 938.7 1081 896 1081C853.3 1081 810.7 1081 768 1081C725.3 1081 682.7 1081 640 1081C597.3 1081 554.7 1081 512 1081C469.3 1081 426.7 1081 384 1081C341.3 1081 298.7 1081 256 1081C213.3 1081 170.7 1081 128 1081C85.3 1081 42.7 1081 21.3 1081L0 1081Z" fill="#ffbb00"></path><path d="M0 973L21.3 971.8C42.7 970.7 85.3 968.3 128 967.7C170.7 967 213.3 968 256 965.8C298.7 963.7 341.3 958.3 384 960.2C426.7 962 469.3 971 512 969.5C554.7 968 597.3 956 640 955.7C682.7 955.3 725.3 966.7 768 971C810.7 975.3 853.3 972.7 896 971.5C938.7 970.3 981.3 970.7 1024 970C1066.7 969.3 1109.3 967.7 1152 965.3C1194.7 963 1237.3 960 1280 959.7C1322.7 959.3 1365.3 961.7 1408 962.7C1450.7 963.7 1493.3 963.3 1536 960.2C1578.7 957 1621.3 951 1664 954.5C1706.7 958 1749.3 971 1792 975C1834.7 979 1877.3 974 1898.7 971.5L1920 969L1920 1081L1898.7 1081C1877.3 1081 1834.7 1081 1792 1081C1749.3 1081 1706.7 1081 1664 1081C1621.3 1081 1578.7 1081 1536 1081C1493.3 1081 1450.7 1081 1408 1081C1365.3 1081 1322.7 1081 1280 1081C1237.3 1081 1194.7 1081 1152 1081C1109.3 1081 1066.7 1081 1024 1081C981.3 1081 938.7 1081 896 1081C853.3 1081 810.7 1081 768 1081C725.3 1081 682.7 1081 640 1081C597.3 1081 554.7 1081 512 1081C469.3 1081 426.7 1081 384 1081C341.3 1081 298.7 1081 256 1081C213.3 1081 170.7 1081 128 1081C85.3 1081 42.7 1081 21.3 1081L0 1081Z" fill="#ffa200"></path><path d="M0 981L21.3 981C42.7 981 85.3 981 128 980C170.7 979 213.3 977 256 979.5C298.7 982 341.3 989 384 993.5C426.7 998 469.3 1000 512 1000.7C554.7 1001.3 597.3 1000.7 640 1000.2C682.7 999.7 725.3 999.3 768 994.5C810.7 989.7 853.3 980.3 896 977C938.7 973.7 981.3 976.3 1024 978.3C1066.7 980.3 1109.3 981.7 1152 983.7C1194.7 985.7 1237.3 988.3 1280 989.7C1322.7 991 1365.3 991 1408 989C1450.7 987 1493.3 983 1536 980.2C1578.7 977.3 1621.3 975.7 1664 978.3C1706.7 981 1749.3 988 1792 992.5C1834.7 997 1877.3 999 1898.7 1000L1920 1001L1920 1081L1898.7 1081C1877.3 1081 1834.7 1081 1792 1081C1749.3 1081 1706.7 1081 1664 1081C1621.3 1081 1578.7 1081 1536 1081C1493.3 1081 1450.7 1081 1408 1081C1365.3 1081 1322.7 1081 1280 1081C1237.3 1081 1194.7 1081 1152 1081C1109.3 1081 1066.7 1081 1024 1081C981.3 1081 938.7 1081 896 1081C853.3 1081 810.7 1081 768 1081C725.3 1081 682.7 1081 640 1081C597.3 1081 554.7 1081 512 1081C469.3 1081 426.7 1081 384 1081C341.3 1081 298.7 1081 256 1081C213.3 1081 170.7 1081 128 1081C85.3 1081 42.7 1081 21.3 1081L0 1081Z" fill="#ff8900"></path><path d="M0 999L21.3 997.8C42.7 996.7 85.3 994.3 128 993.8C170.7 993.3 213.3 994.7 256 997.8C298.7 1001 341.3 1006 384 1008.8C426.7 1011.7 469.3 1012.3 512 1013.7C554.7 1015 597.3 1017 640 1018.3C682.7 1019.7 725.3 1020.3 768 1021.2C810.7 1022 853.3 1023 896 1021.3C938.7 1019.7 981.3 1015.3 1024 1012C1066.7 1008.7 1109.3 1006.3 1152 1003.2C1194.7 1000 1237.3 996 1280 995.3C1322.7 994.7 1365.3 997.3 1408 998.5C1450.7 999.7 1493.3 999.3 1536 1000C1578.7 1000.7 1621.3 1002.3 1664 1002C1706.7 1001.7 1749.3 999.3 1792 998.8C1834.7 998.3 1877.3 999.7 1898.7 1000.3L1920 1001L1920 1081L1898.7 1081C1877.3 1081 1834.7 1081 1792 1081C1749.3 1081 1706.7 1081 1664 1081C1621.3 1081 1578.7 1081 1536 1081C1493.3 1081 1450.7 1081 1408 1081C1365.3 1081 1322.7 1081 1280 1081C1237.3 1081 1194.7 1081 1152 1081C1109.3 1081 1066.7 1081 1024 1081C981.3 1081 938.7 1081 896 1081C853.3 1081 810.7 1081 768 1081C725.3 1081 682.7 1081 640 1081C597.3 1081 554.7 1081 512 1081C469.3 1081 426.7 1081 384 1081C341.3 1081 298.7 1081 256 1081C213.3 1081 170.7 1081 128 1081C85.3 1081 42.7 1081 21.3 1081L0 1081Z" fill="#ff6d00"></path><path d="M0 1015L21.3 1020.7C42.7 1026.3 85.3 1037.7 128 1040.3C170.7 1043 213.3 1037 256 1035C298.7 1033 341.3 1035 384 1036.8C426.7 1038.7 469.3 1040.3 512 1040.2C554.7 1040 597.3 1038 640 1038.5C682.7 1039 725.3 1042 768 1042.2C810.7 1042.3 853.3 1039.7 896 1039.8C938.7 1040 981.3 1043 1024 1041.5C1066.7 1040 1109.3 1034 1152 1034.5C1194.7 1035 1237.3 1042 1280 1041.3C1322.7 1040.7 1365.3 1032.3 1408 1030.8C1450.7 1029.3 1493.3 1034.7 1536 1038.7C1578.7 1042.7 1621.3 1045.3 1664 1045.5C1706.7 1045.7 1749.3 1043.3 1792 1040.5C1834.7 1037.7 1877.3 1034.3 1898.7 1032.7L1920 1031L1920 1081L1898.7 1081C1877.3 1081 1834.7 1081 1792 1081C1749.3 1081 1706.7 1081 1664 1081C1621.3 1081 1578.7 1081 1536 1081C1493.3 1081 1450.7 1081 1408 1081C1365.3 1081 1322.7 1081 1280 1081C1237.3 1081 1194.7 1081 1152 1081C1109.3 1081 1066.7 1081 1024 1081C981.3 1081 938.7 1081 896 1081C853.3 1081 810.7 1081 768 1081C725.3 1081 682.7 1081 640 1081C597.3 1081 554.7 1081 512 1081C469.3 1081 426.7 1081 384 1081C341.3 1081 298.7 1081 256 1081C213.3 1081 170.7 1081 128 1081C85.3 1081 42.7 1081 21.3 1081L0 1081Z" fill="#ff4b00"></path><path d="M0 1065L21.3 1065C42.7 1065 85.3 1065 128 1062.5C170.7 1060 213.3 1055 256 1052.7C298.7 1050.3 341.3 1050.7 384 1051.3C426.7 1052 469.3 1053 512 1056.2C554.7 1059.3 597.3 1064.7 640 1066.3C682.7 1068 725.3 1066 768 1063.2C810.7 1060.3 853.3 1056.7 896 1052.8C938.7 1049 981.3 1045 1024 1046.5C1066.7 1048 1109.3 1055 1152 1057C1194.7 1059 1237.3 1056 1280 1054.8C1322.7 1053.7 1365.3 1054.3 1408 1057.2C1450.7 1060 1493.3 1065 1536 1063.8C1578.7 1062.7 1621.3 1055.3 1664 1052.2C1706.7 1049 1749.3 1050 1792 1052.8C1834.7 1055.7 1877.3 1060.3 1898.7 1062.7L1920 1065L1920 1081L1898.7 1081C1877.3 1081 1834.7 1081 1792 1081C1749.3 1081 1706.7 1081 1664 1081C1621.3 1081 1578.7 1081 1536 1081C1493.3 1081 1450.7 1081 1408 1081C1365.3 1081 1322.7 1081 1280 1081C1237.3 1081 1194.7 1081 1152 1081C1109.3 1081 1066.7 1081 1024 1081C981.3 1081 938.7 1081 896 1081C853.3 1081 810.7 1081 768 1081C725.3 1081 682.7 1081 640 1081C597.3 1081 554.7 1081 512 1081C469.3 1081 426.7 1081 384 1081C341.3 1081 298.7 1081 256 1081C213.3 1081 170.7 1081 128 1081C85.3 1081 42.7 1081 21.3 1081L0 1081Z" fill="#ff0000"></path></svg>