<svg id="visual" viewBox="0 0 900 600" width="900" height="600" xmlns="http://www.w3.org/2000/svg" xmlns:xlink="http://www.w3.org/1999/xlink" version="1.1"><rect x="0" y="0" width="900" height="600" fill="#001220"></rect><path d="M0 340L15 333C30 326 60 312 90 298.2C120 284.3 150 270.7 180 277.2C210 283.7 240 310.3 270 328.5C300 346.7 330 356.3 360 342.8C390 329.3 420 292.7 450 279.5C480 266.3 510 276.7 540 292.5C570 308.3 600 329.7 630 332.7C660 335.7 690 320.3 720 312.8C750 305.3 780 305.7 810 307C840 308.3 870 310.7 885 311.8L900 313L900 601L885 601C870 601 840 601 810 601C780 601 750 601 720 601C690 601 660 601 630 601C600 601 570 601 540 601C510 601 480 601 450 601C420 601 390 601 360 601C330 601 300 601 270 601C240 601 210 601 180 601C150 601 120 601 90 601C60 601 30 601 15 601L0 601Z" fill="#d0cb16"></path><path d="M0 343L15 348.5C30 354 60 365 90 365.8C120 366.7 150 357.3 180 346.5C210 335.7 240 323.3 270 324.3C300 325.3 330 339.7 360 356.8C390 374 420 394 450 394.7C480 395.3 510 376.7 540 376.7C570 376.7 600 395.3 630 400.2C660 405 690 396 720 379.8C750 363.7 780 340.3 810 342.3C840 344.3 870 371.7 885 385.3L900 399L900 601L885 601C870 601 840 601 810 601C780 601 750 601 720 601C690 601 660 601 630 601C600 601 570 601 540 601C510 601 480 601 450 601C420 601 390 601 360 601C330 601 300 601 270 601C240 601 210 601 180 601C150 601 120 601 90 601C60 601 30 601 15 601L0 601Z" fill="#dfb200"></path><path d="M0 379L15 376.7C30 374.3 60 369.7 90 375C120 380.3 150 395.7 180 400.2C210 404.7 240 398.3 270 389.3C300 380.3 330 368.7 360 362.5C390 356.3 420 355.7 450 366.3C480 377 510 399 540 411.5C570 424 600 427 630 424.8C660 422.7 690 415.3 720 411.7C750 408 780 408 810 410.5C840 413 870 418 885 420.5L900 423L900 601L885 601C870 601 840 601 810 601C780 601 750 601 720 601C690 601 660 601 630 601C600 601 570 601 540 601C510 601 480 601 450 601C420 601 390 601 360 601C330 601 300 601 270 601C240 601 210 601 180 601C150 601 120 601 90 601C60 601 30 601 15 601L0 601Z" fill="#ea9700"></path><path d="M0 458L15 449.2C30 440.3 60 422.7 90 418.3C120 414 150 423 180 427.2C210 431.3 240 430.7 270 431.8C300 433 330 436 360 438.2C390 440.3 420 441.7 450 441.7C480 441.7 510 440.3 540 437.8C570 435.3 600 431.7 630 436.8C660 442 690 456 720 452.5C750 449 780 428 810 419C840 410 870 413 885 414.5L900 416L900 601L885 601C870 601 840 601 810 601C780 601 750 601 720 601C690 601 660 601 630 601C600 601 570 601 540 601C510 601 480 601 450 601C420 601 390 601 360 601C330 601 300 601 270 601C240 601 210 601 180 601C150 601 120 601 90 601C60 601 30 601 15 601L0 601Z" fill="#f27a00"></path><path d="M0 518L15 516.5C30 515 60 512 90 511.3C120 510.7 150 512.3 180 507.2C210 502 240 490 270 480.8C300 471.7 330 465.3 360 470.7C390 476 420 493 450 493.7C480 494.3 510 478.7 540 470.7C570 462.7 600 462.3 630 463C660 463.7 690 465.3 720 466.8C750 468.3 780 469.7 810 470.7C840 471.7 870 472.3 885 472.7L900 473L900 601L885 601C870 601 840 601 810 601C780 601 750 601 720 601C690 601 660 601 630 601C600 601 570 601 540 601C510 601 480 601 450 601C420 601 390 601 360 601C330 601 300 601 270 601C240 601 210 601 180 601C150 601 120 601 90 601C60 601 30 601 15 601L0 601Z" fill="#f95500"></path><path d="M0 518L15 519.8C30 521.7 60 525.3 90 529.2C120 533 150 537 180 536.5C210 536 240 531 270 532.8C300 534.7 330 543.3 360 544.5C390 545.7 420 539.3 450 536.2C480 533 510 533 540 534.3C570 535.7 600 538.3 630 539.8C660 541.3 690 541.7 720 537.3C750 533 780 524 810 527.5C840 531 870 547 885 555L900 563L900 601L885 601C870 601 840 601 810 601C780 601 750 601 720 601C690 601 660 601 630 601C600 601 570 601 540 601C510 601 480 601 450 601C420 601 390 601 360 601C330 601 300 601 270 601C240 601 210 601 180 601C150 601 120 601 90 601C60 601 30 601 15 601L0 601Z" fill="#ff0000"></path></svg>