<svg id="visual" viewBox="0 0 600 900" width="600" height="900" xmlns="http://www.w3.org/2000/svg" xmlns:xlink="http://www.w3.org/1999/xlink" version="1.1"><rect x="0" y="0" width="600" height="900" fill="#001220"></rect><path d="M0 502L14.3 507.8C28.7 513.7 57.3 525.3 85.8 544.2C114.3 563 142.7 589 171.2 586.3C199.7 583.7 228.3 552.3 257 548.3C285.7 544.3 314.3 567.7 343 573C371.7 578.3 400.3 565.7 428.8 555.8C457.3 546 485.7 539 514.2 542.7C542.7 546.3 571.3 560.7 585.7 567.8L600 575L600 901L585.7 901C571.3 901 542.7 901 514.2 901C485.7 901 457.3 901 428.8 901C400.3 901 371.7 901 343 901C314.3 901 285.7 901 257 901C228.3 901 199.7 901 171.2 901C142.7 901 114.3 901 85.8 901C57.3 901 28.7 901 14.3 901L0 901Z" fill="#ffd800"></path><path d="M0 644L14.3 637C28.7 630 57.3 616 85.8 607.5C114.3 599 142.7 596 171.2 598C199.7 600 228.3 607 257 608.7C285.7 610.3 314.3 606.7 343 598.5C371.7 590.3 400.3 577.7 428.8 582.3C457.3 587 485.7 609 514.2 620.7C542.7 632.3 571.3 633.7 585.7 634.3L600 635L600 901L585.7 901C571.3 901 542.7 901 514.2 901C485.7 901 457.3 901 428.8 901C400.3 901 371.7 901 343 901C314.3 901 285.7 901 257 901C228.3 901 199.7 901 171.2 901C142.7 901 114.3 901 85.8 901C57.3 901 28.7 901 14.3 901L0 901Z" fill="#ffbf00"></path><path d="M0 622L14.3 628C28.7 634 57.3 646 85.8 655.8C114.3 665.7 142.7 673.3 171.2 666.7C199.7 660 228.3 639 257 626.7C285.7 614.3 314.3 610.7 343 618C371.7 625.3 400.3 643.7 428.8 642.8C457.3 642 485.7 622 514.2 630.5C542.7 639 571.3 676 585.7 694.5L600 713L600 901L585.7 901C571.3 901 542.7 901 514.2 901C485.7 901 457.3 901 428.8 901C400.3 901 371.7 901 343 901C314.3 901 285.7 901 257 901C228.3 901 199.7 901 171.2 901C142.7 901 114.3 901 85.8 901C57.3 901 28.7 901 14.3 901L0 901Z" fill="#ffa500"></path><path d="M0 723L14.3 722.3C28.7 721.7 57.3 720.3 85.8 712.2C114.3 704 142.7 689 171.2 682.8C199.7 676.7 228.3 679.3 257 679.3C285.7 679.3 314.3 676.7 343 684.2C371.7 691.7 400.3 709.3 428.8 707.8C457.3 706.3 485.7 685.7 514.2 682.3C542.7 679 571.3 693 585.7 700L600 707L600 901L585.7 901C571.3 901 542.7 901 514.2 901C485.7 901 457.3 901 428.8 901C400.3 901 371.7 901 343 901C314.3 901 285.7 901 257 901C228.3 901 199.7 901 171.2 901C142.7 901 114.3 901 85.8 901C57.3 901 28.7 901 14.3 901L0 901Z" fill="#ff8b00"></path><path d="M0 755L14.3 754C28.7 753 57.3 751 85.8 744C114.3 737 142.7 725 171.2 718C199.7 711 228.3 709 257 713.8C285.7 718.7 314.3 730.3 343 735C371.7 739.7 400.3 737.3 428.8 738C457.3 738.7 485.7 742.3 514.2 745.8C542.7 749.3 571.3 752.7 585.7 754.3L600 756L600 901L585.7 901C571.3 901 542.7 901 514.2 901C485.7 901 457.3 901 428.8 901C400.3 901 371.7 901 343 901C314.3 901 285.7 901 257 901C228.3 901 199.7 901 171.2 901C142.7 901 114.3 901 85.8 901C57.3 901 28.7 901 14.3 901L0 901Z" fill="#ff6f00"></path><path d="M0 814L14.3 817C28.7 820 57.3 826 85.8 818.8C114.3 811.7 142.7 791.3 171.2 792C199.7 792.7 228.3 814.3 257 819C285.7 823.7 314.3 811.3 343 804.7C371.7 798 400.3 797 428.8 792.3C457.3 787.7 485.7 779.3 514.2 782.5C542.7 785.7 571.3 800.3 585.7 807.7L600 815L600 901L585.7 901C571.3 901 542.7 901 514.2 901C485.7 901 457.3 901 428.8 901C400.3 901 371.7 901 343 901C314.3 901 285.7 901 257 901C228.3 901 199.7 901 171.2 901C142.7 901 114.3 901 85.8 901C57.3 901 28.7 901 14.3 901L0 901Z" fill="#ff4c00"></path><path d="M0 856L14.3 856.2C28.7 856.3 57.3 856.7 85.8 849.8C114.3 843 142.7 829 171.2 823C199.7 817 228.3 819 257 826.5C285.7 834 314.3 847 343 853.7C371.7 860.3 400.3 860.7 428.8 856C457.3 851.3 485.7 841.7 514.2 836.5C542.7 831.3 571.3 830.7 585.7 830.3L600 830L600 901L585.7 901C571.3 901 542.7 901 514.2 901C485.7 901 457.3 901 428.8 901C400.3 901 371.7 901 343 901C314.3 901 285.7 901 257 901C228.3 901 199.7 901 171.2 901C142.7 901 114.3 901 85.8 901C57.3 901 28.7 901 14.3 901L0 901Z" fill="#ff0000"></path></svg>